<svg id="Ebene_1" data-name="Ebene 1" xmlns="http://www.w3.org/2000/svg" viewBox="0 0 622.32 197.95"><defs><style>.cls-1,.cls-3{fill:#fff;}.cls-1,.cls-5{stroke:#fff;}.cls-1,.cls-5,.cls-6{stroke-miterlimit:10;}.cls-2{fill:#f9b104;}.cls-4{fill:#00336a;}.cls-5{fill:none;}.cls-6{fill:#f9b233;stroke:#f9b233;}</style></defs><path class="cls-1" d="M238.38,232.35v19.91h12.53v3.61H233.48V232.35Z" transform="translate(-105.55 -190.14)"/><path class="cls-1" d="M264.89,253a17.17,17.17,0,0,0,2.88-.25,25,25,0,0,0,3-.7v3.32A15,15,0,0,1,268,256a24.08,24.08,0,0,1-3.94.32,15.93,15.93,0,0,1-3.91-.47,8.9,8.9,0,0,1-3.23-1.5,7.35,7.35,0,0,1-2.19-2.69,9,9,0,0,1-.81-4,10,10,0,0,1,.76-4.06,8,8,0,0,1,2-2.88,8.56,8.56,0,0,1,2.93-1.72,10.39,10.39,0,0,1,3.41-.57,11.38,11.38,0,0,1,3.39.49,6.77,6.77,0,0,1,4.44,4.27,11,11,0,0,1,.63,3.93c0,.58,0,1.08-.06,1.49h-12.7a4.4,4.4,0,0,0,.6,2,4.06,4.06,0,0,0,1.31,1.36,5.93,5.93,0,0,0,1.89.75A10.78,10.78,0,0,0,264.89,253ZM263,241.66a4.19,4.19,0,0,0-1.6.29,3.82,3.82,0,0,0-2,2,4.9,4.9,0,0,0-.4,1.43h7.62a4.46,4.46,0,0,0-.23-1.43,3.29,3.29,0,0,0-.68-1.16,3.18,3.18,0,0,0-1.12-.8A4,4,0,0,0,263,241.66Z" transform="translate(-105.55 -190.14)"/><path class="cls-1" d="M280.85,237.36c0,.88,0,1.6-.05,2.17a12.93,12.93,0,0,1-.17,1.54h.08a7.55,7.55,0,0,1,1-1,7.42,7.42,0,0,1,1.34-.85,8.07,8.07,0,0,1,1.66-.59,8.75,8.75,0,0,1,2.05-.23,10.4,10.4,0,0,1,1.87.17,7,7,0,0,1,1.7.52,5.66,5.66,0,0,1,1.44.91,4.9,4.9,0,0,1,1.09,1.34,5,5,0,0,1,.56,1.51,10,10,0,0,1,.18,2.06v11h-4.74V245.48a7.62,7.62,0,0,0-.08-1.29,2.41,2.41,0,0,0-.28-.87,2.31,2.31,0,0,0-1.2-1.09,4.71,4.71,0,0,0-1.78-.32,6,6,0,0,0-2.55.58,7.2,7.2,0,0,0-2.15,1.65v11.73h-4.74V230.41h4.74Z" transform="translate(-105.55 -190.14)"/><path class="cls-1" d="M310.36,242.14H310a11.7,11.7,0,0,0-3.83.57,5.24,5.24,0,0,0-2.55,1.75v11.41h-4.74v-17h3.92l.44,2.38h.08a5.83,5.83,0,0,1,2.31-2.05,7.67,7.67,0,0,1,3.53-.75,10.82,10.82,0,0,1,1.24.07Z" transform="translate(-105.55 -190.14)"/><path class="cls-1" d="M321.74,250.93a1.24,1.24,0,0,0-.35-.9,2.81,2.81,0,0,0-.93-.59,9.13,9.13,0,0,0-1.33-.41c-.5-.12-1-.24-1.57-.35s-1.36-.36-2-.57a6.1,6.1,0,0,1-1.69-.86,3.77,3.77,0,0,1-1.16-1.32,4.08,4.08,0,0,1-.43-2,4.86,4.86,0,0,1,2.15-4.2,6.89,6.89,0,0,1,2.3-1,10.84,10.84,0,0,1,2.77-.34,20.67,20.67,0,0,1,3.34.26,19.55,19.55,0,0,1,2.82.66v3.39c-.44-.13-.9-.25-1.39-.36s-1-.21-1.48-.29-1-.15-1.49-.2a11.49,11.49,0,0,0-1.4-.08,5.82,5.82,0,0,0-1.42.14,2.83,2.83,0,0,0-.94.38,1.48,1.48,0,0,0-.52.54,1.35,1.35,0,0,0-.16.64,1.32,1.32,0,0,0,.35.95,2.44,2.44,0,0,0,1,.6,10.34,10.34,0,0,0,1.3.38l1.32.29c.67.14,1.33.31,2,.51a6.46,6.46,0,0,1,1.8.83,4.36,4.36,0,0,1,1.31,1.39,4.17,4.17,0,0,1,.51,2.17,4.94,4.94,0,0,1-.62,2.51,5.19,5.19,0,0,1-1.73,1.79,8.09,8.09,0,0,1-2.66,1.05,15.67,15.67,0,0,1-3.41.35,19.42,19.42,0,0,1-3.31-.26,12.05,12.05,0,0,1-2.43-.64v-3.36a17.59,17.59,0,0,0,2.88.7,18.28,18.28,0,0,0,2.46.18,12,12,0,0,0,1.64-.11,5.39,5.39,0,0,0,1.31-.36,2.45,2.45,0,0,0,.87-.63A1.36,1.36,0,0,0,321.74,250.93Z" transform="translate(-105.55 -190.14)"/><path class="cls-1" d="M342.36,255.85a13.14,13.14,0,0,1-1.91.33,17.15,17.15,0,0,1-2.07.13,9.74,9.74,0,0,1-4-.7,4.3,4.3,0,0,1-2.19-2,5.75,5.75,0,0,1-.46-2.53v-8.83h-3.62v-3.43h3.62v-4.76h4.74v4.76h5.6v3.43h-5.6v8.28a2.58,2.58,0,0,0,.34,1.46,2.84,2.84,0,0,0,2.38.81,11.07,11.07,0,0,0,1.63-.12,13.41,13.41,0,0,0,1.53-.29Z" transform="translate(-105.55 -190.14)"/><path class="cls-1" d="M354.63,256.31a11.74,11.74,0,0,1-4.84-.87,6.71,6.71,0,0,1-2.91-2.35,6.2,6.2,0,0,1-.77-1.74,8.6,8.6,0,0,1-.25-2.11V238.83h4.74v10a6.46,6.46,0,0,0,.15,1.49,3.48,3.48,0,0,0,.42,1.08,2.9,2.9,0,0,0,1.36,1.15,5.29,5.29,0,0,0,2.1.38,5.06,5.06,0,0,0,2.19-.43,2.89,2.89,0,0,0,1.37-1.28,4.85,4.85,0,0,0,.46-2.3V238.83h4.74v10.41a7,7,0,0,1-.82,3.5,6.15,6.15,0,0,1-1.19,1.47,7,7,0,0,1-1.72,1.12,10,10,0,0,1-2.24.72A14.08,14.08,0,0,1,354.63,256.31Z" transform="translate(-105.55 -190.14)"/><path class="cls-1" d="M373.33,237.36c0,.88,0,1.6-.05,2.17a12.93,12.93,0,0,1-.17,1.54h.08a7.55,7.55,0,0,1,1-1,7.08,7.08,0,0,1,1.34-.85,8.07,8.07,0,0,1,1.66-.59,8.69,8.69,0,0,1,2-.23,10.49,10.49,0,0,1,1.87.17,7.16,7.16,0,0,1,1.7.52,5.66,5.66,0,0,1,1.44.91,5.09,5.09,0,0,1,1.09,1.34,5.31,5.31,0,0,1,.56,1.51,10,10,0,0,1,.18,2.06v11h-4.74V245.48a8.84,8.84,0,0,0-.08-1.29,2.62,2.62,0,0,0-.28-.87,2.31,2.31,0,0,0-1.2-1.09,4.71,4.71,0,0,0-1.78-.32,6,6,0,0,0-2.55.58,7.08,7.08,0,0,0-2.15,1.65v11.73h-4.74V230.41h4.74Z" transform="translate(-105.55 -190.14)"/><path class="cls-1" d="M391.51,255.87V230.41h4.74v25.46Z" transform="translate(-105.55 -190.14)"/><path class="cls-1" d="M422.24,233.79c-.52-.12-1.06-.21-1.61-.29a11.1,11.1,0,0,0-1.57-.12,5.47,5.47,0,0,0-1.42.17,2.42,2.42,0,0,0-1.05.56,2.26,2.26,0,0,0-.65,1,4.37,4.37,0,0,0-.22,1.49v2.23h5.38v3.43h-5.38v13.61H411V242.26h-3.29v-3.43H411v-2a7.59,7.59,0,0,1,.57-3.08,5.69,5.69,0,0,1,1.59-2.13,6.51,6.51,0,0,1,2.4-1.23,11,11,0,0,1,3-.4,14.16,14.16,0,0,1,3.7.51Z" transform="translate(-105.55 -190.14)"/><path class="cls-1" d="M432.1,256.31a11.74,11.74,0,0,1-4.84-.87,6.68,6.68,0,0,1-2.9-2.35,5.67,5.67,0,0,1-.77-1.74,8.14,8.14,0,0,1-.25-2.11V238.83h4.74v10a6.5,6.5,0,0,0,.14,1.49,3.48,3.48,0,0,0,.42,1.08,2.9,2.9,0,0,0,1.36,1.15,5.36,5.36,0,0,0,2.1.38,5.06,5.06,0,0,0,2.19-.43,2.84,2.84,0,0,0,1.37-1.28,4.73,4.73,0,0,0,.46-2.3V238.83h4.74v10.41a6.89,6.89,0,0,1-.82,3.5,5.92,5.92,0,0,1-1.19,1.47,7,7,0,0,1-1.72,1.12,10,10,0,0,1-2.24.72A13.94,13.94,0,0,1,432.1,256.31Zm-6.32-25.26h4.36v3.88h-4.36Zm8.2,0h4.36v3.88H434Z" transform="translate(-105.55 -190.14)"/><path class="cls-1" d="M457.38,242.14H457a11.74,11.74,0,0,0-3.83.57,5.24,5.24,0,0,0-2.55,1.75v11.41h-4.74v-17h3.92l.44,2.38h.08a5.83,5.83,0,0,1,2.31-2.05,7.7,7.7,0,0,1,3.53-.75,10.69,10.69,0,0,1,1.24.07Z" transform="translate(-105.55 -190.14)"/><path class="cls-1" d="M234.75,298.87V266h9.89c.88,0,1.76,0,2.67.08s1.78.12,2.64.22,1.68.22,2.48.35a19.54,19.54,0,0,1,2.21.51,20.12,20.12,0,0,1,5.28,2.26,14.75,14.75,0,0,1,3.84,3.36,14,14,0,0,1,2.35,4.33,16.41,16.41,0,0,1,.79,5.19,17.66,17.66,0,0,1-.67,5,13.53,13.53,0,0,1-2,4.24,14.19,14.19,0,0,1-3.45,3.37,18.55,18.55,0,0,1-4.93,2.4,29.36,29.36,0,0,1-5.39,1.17,51.34,51.34,0,0,1-6.78.4Zm9.67-5a24.57,24.57,0,0,0,9.38-1.44,9.73,9.73,0,0,0,4.53-3.78,11.93,11.93,0,0,0,1.53-6.34,12.07,12.07,0,0,0-.5-3.63,9.24,9.24,0,0,0-3.76-5.06,13.31,13.31,0,0,0-3-1.49,18,18,0,0,0-3.55-.79,36.4,36.4,0,0,0-4.39-.24h-3v22.77Z" transform="translate(-105.55 -190.14)"/><path class="cls-1" d="M273.33,263.32h6.95v6.31h-6.95Zm.17,11.76h6.62v23.79H273.5Z" transform="translate(-105.55 -190.14)"/><path class="cls-1" d="M286.15,287.45a14.94,14.94,0,0,1,1-5.56,11.75,11.75,0,0,1,2.67-4.1,11,11,0,0,1,3.87-2.48,12.87,12.87,0,0,1,4.52-.82,12.39,12.39,0,0,1,2.07.17,12.69,12.69,0,0,1,1.84.47,15.18,15.18,0,0,1,1.62.66c.5.25,1,.5,1.4.76h.05c0-.32,0-.79,0-1.38s0-1.25,0-1.95v-9.9h6.62V291.8c0,1.57,0,2.92.05,4.05s.08,2.13.12,3h-6l-.28-2.53h-.11a9.61,9.61,0,0,1-1.41,1.2,10.31,10.31,0,0,1-1.82,1,11.36,11.36,0,0,1-2.18.68,13.56,13.56,0,0,1-6.81-.45,10,10,0,0,1-6.21-5.88A14.17,14.17,0,0,1,286.15,287.45Zm13.05,7.39a7.39,7.39,0,0,0,1.85-.22,9.17,9.17,0,0,0,1.67-.59,7.6,7.6,0,0,0,1.38-.81,8.5,8.5,0,0,0,1-.86V281.07a11.53,11.53,0,0,0-2.63-1.39,8.74,8.74,0,0,0-3.07-.55,6.92,6.92,0,0,0-2.17.37,5.47,5.47,0,0,0-2.06,1.25,6.73,6.73,0,0,0-1.57,2.46,10.82,10.82,0,0,0-.63,4,8.85,8.85,0,0,0,1.58,5.59A5.55,5.55,0,0,0,299.2,294.84Z" transform="translate(-105.55 -190.14)"/><path class="cls-1" d="M335.37,296.34h-.11a12.56,12.56,0,0,1-1.34,1.05,13,13,0,0,1-1.79,1,11.08,11.08,0,0,1-4.89,1.07,12,12,0,0,1-3.6-.53,8.42,8.42,0,0,1-2.88-1.52,7,7,0,0,1-1.88-2.4,7.14,7.14,0,0,1-.69-3.16,7.33,7.33,0,0,1,.8-3.44,7.48,7.48,0,0,1,2.22-2.57,10.16,10.16,0,0,1,3.41-1.61,16.21,16.21,0,0,1,4.38-.55,24.49,24.49,0,0,1,5.84.66v-1a4.28,4.28,0,0,0-.32-1.61,3.65,3.65,0,0,0-1-1.37,5.28,5.28,0,0,0-1.85-1,9.85,9.85,0,0,0-2.8-.35,21.06,21.06,0,0,0-4,.39,33.87,33.87,0,0,0-4.36,1.18v-4.54a23.79,23.79,0,0,1,4.33-1.21,29.65,29.65,0,0,1,4.81-.44,19.06,19.06,0,0,1,5.18.64,11.32,11.32,0,0,1,3.71,1.76,7.16,7.16,0,0,1,2.24,2.63,7.55,7.55,0,0,1,.74,3.32v9q0,2.35.06,4.05c0,1.13.07,2.13.11,3h-6Zm-.53-7.61c-.63-.13-1.36-.25-2.18-.36a20.55,20.55,0,0,0-2.49-.16,7.49,7.49,0,0,0-3.84.85,2.82,2.82,0,0,0-1.41,2.59,3,3,0,0,0,.32,1.41,3.1,3.1,0,0,0,.87,1,4.13,4.13,0,0,0,1.27.59,6,6,0,0,0,1.54.19,7.79,7.79,0,0,0,1.9-.23,9.59,9.59,0,0,0,1.64-.59,7.73,7.73,0,0,0,1.36-.8,8.5,8.5,0,0,0,1-.86Z" transform="translate(-105.55 -190.14)"/><path class="cls-1" d="M349.17,263.32h6.62v21.41h.14l10.31-9.65h8.18l-11.87,11.17,12,12.62h-8L355.9,287.8h-.11v11.07h-6.62Z" transform="translate(-105.55 -190.14)"/><path class="cls-1" d="M395,298.84a18.74,18.74,0,0,1-2.66.47,27.66,27.66,0,0,1-2.9.17,13.64,13.64,0,0,1-5.57-1,6,6,0,0,1-3.06-2.78,8.09,8.09,0,0,1-.64-3.54V279.87h-5.06v-4.79h5.06v-6.65h6.62v6.65h7.82v4.79h-7.82v11.56a3.51,3.51,0,0,0,.48,2c.55.75,1.66,1.13,3.32,1.13a17.47,17.47,0,0,0,2.28-.16A21.18,21.18,0,0,0,395,294Z" transform="translate(-105.55 -190.14)"/><path class="cls-1" d="M400.12,263.32h7v6.31h-7Zm.17,11.76h6.62v23.79h-6.62Z" transform="translate(-105.55 -190.14)"/><path class="cls-1" d="M414.62,263.32h6.62v21.41h.14l10.31-9.65h8.18L428,286.25l12,12.62h-8L421.35,287.8h-.11v11.07h-6.62Z" transform="translate(-105.55 -190.14)"/><path class="cls-1" d="M454.26,287.45a14.74,14.74,0,0,1,1-5.56,11.87,11.87,0,0,1,2.66-4.1,11.2,11.2,0,0,1,3.87-2.48,12.88,12.88,0,0,1,4.53-.82,11.84,11.84,0,0,1,3.91.64,15.18,15.18,0,0,1,1.62.66c.5.25,1,.5,1.4.76h0c0-.32,0-.79,0-1.38s0-1.25,0-1.95v-9.9h6.62V291.8c0,1.57,0,2.92,0,4.05s.08,2.13.11,3h-6l-.28-2.53h-.12a9.61,9.61,0,0,1-1.41,1.2,10.22,10.22,0,0,1-1.81,1,11.36,11.36,0,0,1-2.18.68,13.6,13.6,0,0,1-6.82-.45,10,10,0,0,1-6.2-5.88A14.17,14.17,0,0,1,454.26,287.45Zm13,7.39a7.47,7.47,0,0,0,1.86-.22,8.81,8.81,0,0,0,1.66-.59,8.06,8.06,0,0,0,1.39-.81,8.5,8.5,0,0,0,1-.86V281.07a11.74,11.74,0,0,0-2.63-1.39,8.74,8.74,0,0,0-3.07-.55,6.92,6.92,0,0,0-2.17.37,5.58,5.58,0,0,0-2.07,1.25,6.85,6.85,0,0,0-1.56,2.46,10.82,10.82,0,0,0-.63,4,8.85,8.85,0,0,0,1.58,5.59A5.53,5.53,0,0,0,467.3,294.84Z" transform="translate(-105.55 -190.14)"/><path class="cls-1" d="M501.49,294.79a24.82,24.82,0,0,0,4-.34,35.87,35.87,0,0,0,4.24-1v4.64a23.07,23.07,0,0,1-3.94.93,33.94,33.94,0,0,1-5.5.44,22.44,22.44,0,0,1-5.46-.65,12.34,12.34,0,0,1-4.51-2.1,10.17,10.17,0,0,1-3.06-3.75,12.71,12.71,0,0,1-1.13-5.6,14,14,0,0,1,1.06-5.67,11.57,11.57,0,0,1,2.85-4,11.91,11.91,0,0,1,4.09-2.39,14.55,14.55,0,0,1,4.76-.8,15.51,15.51,0,0,1,4.74.69,9.75,9.75,0,0,1,3.74,2.16,10,10,0,0,1,2.46,3.79,15.42,15.42,0,0,1,.88,5.49c0,.82-.05,1.51-.08,2.08H492.92a6.41,6.41,0,0,0,.84,2.82,5.7,5.7,0,0,0,1.83,1.89,8,8,0,0,0,2.64,1A15.19,15.19,0,0,0,501.49,294.79ZM498.84,279a5.76,5.76,0,0,0-2.23.41,5.23,5.23,0,0,0-2.83,2.74,6.92,6.92,0,0,0-.55,2h10.64a6.13,6.13,0,0,0-.32-2,4.77,4.77,0,0,0-.95-1.64,4.49,4.49,0,0,0-1.57-1.1A5.45,5.45,0,0,0,498.84,279Z" transform="translate(-105.55 -190.14)"/><path class="cls-1" d="M533,279.7h-.56a16.38,16.38,0,0,0-5.35.79,7.35,7.35,0,0,0-3.56,2.45v15.93h-6.62V275.08h5.47l.62,3.32h.11a8.06,8.06,0,0,1,3.22-2.86,10.74,10.74,0,0,1,4.93-1.05,12.47,12.47,0,0,1,1.74.1Z" transform="translate(-105.55 -190.14)"/><path class="cls-1" d="M565.46,270.49a15.76,15.76,0,0,0-5.15.81,11.47,11.47,0,0,0-4,2.36,10.59,10.59,0,0,0-2.64,3.81,13.47,13.47,0,0,0-1,5.2,13.74,13.74,0,0,0,.87,5.09,9.59,9.59,0,0,0,2.48,3.67,10.66,10.66,0,0,0,4,2.22,17.31,17.31,0,0,0,5.3.75,32.17,32.17,0,0,0,4.33-.3,27.64,27.64,0,0,0,4.13-.85v5.18a37,37,0,0,1-4.22.77,37.41,37.41,0,0,1-4.69.28,26.75,26.75,0,0,1-8.35-1.19,16.64,16.64,0,0,1-6-3.36,13.87,13.87,0,0,1-3.63-5.21A17.82,17.82,0,0,1,545.6,283a18.59,18.59,0,0,1,1.3-7,16,16,0,0,1,3.75-5.57,17.14,17.14,0,0,1,6.11-3.71,24.45,24.45,0,0,1,8.31-1.37,33.76,33.76,0,0,1,4.5.28,25,25,0,0,1,3.83.8v5.11a29.71,29.71,0,0,0-4.16-.86A28.9,28.9,0,0,0,565.46,270.49Z" transform="translate(-105.55 -190.14)"/><path class="cls-1" d="M586.78,273c0,1.23,0,2.24-.07,3a20.42,20.42,0,0,1-.24,2.15h.11a10.64,10.64,0,0,1,1.44-1.38,10.81,10.81,0,0,1,1.87-1.19,11.45,11.45,0,0,1,2.32-.82,12.15,12.15,0,0,1,2.86-.32,14.11,14.11,0,0,1,2.62.24,10.2,10.2,0,0,1,2.37.72,8,8,0,0,1,2,1.28,6.89,6.89,0,0,1,1.52,1.86,7.27,7.27,0,0,1,.79,2.11,14.65,14.65,0,0,1,.25,2.87v15.3H598V284.36a10.89,10.89,0,0,0-.12-1.8,3.57,3.57,0,0,0-.39-1.22,3.25,3.25,0,0,0-1.67-1.52,6.5,6.5,0,0,0-2.49-.44,8.19,8.19,0,0,0-3.56.81,9.64,9.64,0,0,0-3,2.3v16.38h-6.62V263.32h6.62Z" transform="translate(-105.55 -190.14)"/><path class="cls-1" d="M625.83,294.79a24.7,24.7,0,0,0,4-.34,36,36,0,0,0,4.25-1v4.64a23.31,23.31,0,0,1-3.94.93,33.94,33.94,0,0,1-5.5.44,22.44,22.44,0,0,1-5.46-.65,12.38,12.38,0,0,1-4.52-2.1,10.37,10.37,0,0,1-3.06-3.75,12.71,12.71,0,0,1-1.13-5.6,14.2,14.2,0,0,1,1.06-5.67,11.57,11.57,0,0,1,2.85-4,12.05,12.05,0,0,1,4.1-2.39,14.46,14.46,0,0,1,4.76-.8,15.49,15.49,0,0,1,4.73.69,9.79,9.79,0,0,1,3.75,2.16,10,10,0,0,1,2.46,3.79,15.65,15.65,0,0,1,.88,5.49c0,.82-.05,1.51-.09,2.08H617.25a6.68,6.68,0,0,0,.84,2.82,5.9,5.9,0,0,0,1.83,1.89,8.2,8.2,0,0,0,2.64,1A15.35,15.35,0,0,0,625.83,294.79ZM623.18,279a5.81,5.81,0,0,0-2.24.41,5.17,5.17,0,0,0-2.82,2.74,6.94,6.94,0,0,0-.56,2H628.2a5.87,5.87,0,0,0-.32-2,4.62,4.62,0,0,0-1-1.64,4.54,4.54,0,0,0-1.56-1.1A5.52,5.52,0,0,0,623.18,279Z" transform="translate(-105.55 -190.14)"/><path class="cls-1" d="M676.08,284.38c0-.5,0-1-.05-1.42a6.49,6.49,0,0,0-.2-1.15,3.2,3.2,0,0,0-1.2-1.75,4.23,4.23,0,0,0-2.51-.68,7.49,7.49,0,0,0-1.79.22,10.39,10.39,0,0,0-1.83.62,9.91,9.91,0,0,0-1.73,1,9.74,9.74,0,0,0-1.5,1.28v16.38h-6.62V284.38c0-.5,0-1,0-1.42a6.49,6.49,0,0,0-.2-1.15,3.24,3.24,0,0,0-1.19-1.75,4.2,4.2,0,0,0-2.52-.68,7.49,7.49,0,0,0-1.79.22,10.39,10.39,0,0,0-1.83.62,9.56,9.56,0,0,0-1.73,1,9.74,9.74,0,0,0-1.5,1.28v16.38h-6.62V275.08h5.48l.61,3.32h.11A8.88,8.88,0,0,1,648.9,277a10.73,10.73,0,0,1,2-1.26,12.69,12.69,0,0,1,2.48-.87,12.13,12.13,0,0,1,2.87-.33,10.8,10.8,0,0,1,4.82,1.05,7,7,0,0,1,3.25,3.25h.11a12.58,12.58,0,0,1,1.75-1.75,11,11,0,0,1,2.13-1.35,12.47,12.47,0,0,1,5.42-1.2,10.51,10.51,0,0,1,4.88,1.07,7.54,7.54,0,0,1,3,2.86,5.29,5.29,0,0,1,.47,1,8.87,8.87,0,0,1,.33,1.24,15.15,15.15,0,0,1,.18,1.52c0,.56.05,1.19.05,1.91v14.76h-6.62Z" transform="translate(-105.55 -190.14)"/><path class="cls-1" d="M690,263.32h6.95v6.31H690Zm.16,11.76h6.62v23.79h-6.62Z" transform="translate(-105.55 -190.14)"/><path class="cls-1" d="M718.12,294.79a24.82,24.82,0,0,0,4-.34,35.87,35.87,0,0,0,4.24-1v4.64a23.07,23.07,0,0,1-3.94.93,33.94,33.94,0,0,1-5.5.44,22.44,22.44,0,0,1-5.46-.65,12.34,12.34,0,0,1-4.51-2.1,10.17,10.17,0,0,1-3.06-3.75,12.71,12.71,0,0,1-1.13-5.6,14,14,0,0,1,1.06-5.67,11.57,11.57,0,0,1,2.85-4,11.91,11.91,0,0,1,4.09-2.39,14.55,14.55,0,0,1,4.76-.8,15.51,15.51,0,0,1,4.74.69,9.75,9.75,0,0,1,3.74,2.16,10,10,0,0,1,2.46,3.79,15.42,15.42,0,0,1,.88,5.49c0,.82,0,1.51-.08,2.08H709.55a6.41,6.41,0,0,0,.84,2.82,5.7,5.7,0,0,0,1.83,1.89,8,8,0,0,0,2.64,1A15.19,15.19,0,0,0,718.12,294.79ZM715.47,279a5.76,5.76,0,0,0-2.23.41,5.23,5.23,0,0,0-2.83,2.74,6.92,6.92,0,0,0-.55,2H720.5a6.13,6.13,0,0,0-.32-2,4.77,4.77,0,0,0-.95-1.64,4.49,4.49,0,0,0-1.57-1.1A5.45,5.45,0,0,0,715.47,279Z" transform="translate(-105.55 -190.14)"/><path class="cls-2" d="M238.38,343.87h-4.9V320.35h17.05V324H238.38V330h10.39v3.61H238.38Z" transform="translate(-105.55 -190.14)"/><path class="cls-2" d="M268.15,337.87H258.07l-2.62,6h-5.22l10.62-23.52h4.48L276,343.87h-5.18ZM263.07,326c-.94,2.46-1.77,4.51-2.51,6.17l-.91,2.09h6.92l-.92-2.09c-.72-1.67-1.56-3.73-2.5-6.17Z" transform="translate(-105.55 -190.14)"/><path class="cls-2" d="M290.83,344.31a18.11,18.11,0,0,1-3.78-.36,11.57,11.57,0,0,1-3-1,8.08,8.08,0,0,1-2.18-1.65,8,8,0,0,1-1.44-2.21,8.94,8.94,0,0,1-.63-2.18,16.75,16.75,0,0,1-.19-2.67V320.35h4.9v13.46a9.13,9.13,0,0,0,.68,3.9,4.65,4.65,0,0,0,2.22,2.26,8.8,8.8,0,0,0,6.88,0,4.57,4.57,0,0,0,2.22-2.26,9,9,0,0,0,.68-3.9V320.35h4.91V334.2a18,18,0,0,1-.19,2.67,8.53,8.53,0,0,1-.64,2.18,7.56,7.56,0,0,1-1.45,2.21,7.84,7.84,0,0,1-2.22,1.65,11.82,11.82,0,0,1-3,1A18.38,18.38,0,0,1,290.83,344.31Z" transform="translate(-105.55 -190.14)"/><path class="cls-2" d="M321.78,340.26h13.16v3.61H316.88V320.35h17.34V324H321.78V330h10.68v3.61H321.78Z" transform="translate(-105.55 -190.14)"/><path class="cls-2" d="M351.06,330.14h-.4a11.74,11.74,0,0,0-3.83.57,5.24,5.24,0,0,0-2.55,1.75v11.41h-4.74v-17h3.92l.44,2.38H344a5.83,5.83,0,0,1,2.31-2,7.7,7.7,0,0,1,3.53-.75,10.69,10.69,0,0,1,1.24.07Z" transform="translate(-105.55 -190.14)"/><path class="cls-2" d="M354.06,343.87V318.41h4.75v25.46Z" transform="translate(-105.55 -190.14)"/><path class="cls-2" d="M375.61,342.06h-.08a10.78,10.78,0,0,1-1,.75,9.57,9.57,0,0,1-1.28.73,8,8,0,0,1-3.5.77,8.61,8.61,0,0,1-2.58-.38,6,6,0,0,1-2.06-1.09,5,5,0,0,1-1.35-1.72,5.09,5.09,0,0,1-.49-2.26,5.19,5.19,0,0,1,.57-2.46,5.33,5.33,0,0,1,1.59-1.85,7.35,7.35,0,0,1,2.44-1.15,11.77,11.77,0,0,1,3.14-.4,18.43,18.43,0,0,1,2.32.14c.7.1,1.32.21,1.86.34v-.69a3,3,0,0,0-.23-1.15,2.48,2.48,0,0,0-.74-1,3.7,3.7,0,0,0-1.33-.69,6.86,6.86,0,0,0-2-.25,14.79,14.79,0,0,0-2.88.28,26.29,26.29,0,0,0-3.12.84v-3.25a16.6,16.6,0,0,1,3.1-.86,20,20,0,0,1,3.44-.32,13.3,13.3,0,0,1,3.71.46,7.92,7.92,0,0,1,2.66,1.26,5.13,5.13,0,0,1,1.6,1.89,5.35,5.35,0,0,1,.53,2.37v6.41c0,1.13,0,2.1,0,2.91s.05,1.52.08,2.16h-4.28Zm-.38-5.45c-.46-.1-1-.18-1.56-.26a15.05,15.05,0,0,0-1.78-.11,5.37,5.37,0,0,0-2.75.6,2.15,2.15,0,0,0-.16,3.58,2.63,2.63,0,0,0,.91.42,3.9,3.9,0,0,0,1.1.14,5.45,5.45,0,0,0,1.36-.16,6.83,6.83,0,0,0,1.18-.42,5.41,5.41,0,0,0,1-.58,6.9,6.9,0,0,0,.73-.61Z" transform="translate(-105.55 -190.14)"/><path class="cls-2" d="M389.65,329.21h.08a6.56,6.56,0,0,1,1.06-1,7.5,7.5,0,0,1,1.46-.9,10.12,10.12,0,0,1,1.81-.62,9,9,0,0,1,2.11-.24,9.83,9.83,0,0,1,2.05.21,6.5,6.5,0,0,1,1.81.66,5.41,5.41,0,0,1,1.45,1.16,5.28,5.28,0,0,1,1,1.7,4.41,4.41,0,0,1,.27,1.19,12.89,12.89,0,0,1,.07,1.48v11.06h-4.74V333.46a9.94,9.94,0,0,0-.06-1.18,3.09,3.09,0,0,0-.22-.86,2.25,2.25,0,0,0-1.09-1.16,4.07,4.07,0,0,0-1.77-.35,6.41,6.41,0,0,0-2.65.57,6.82,6.82,0,0,0-2.25,1.66v11.73h-4.74v-17h3.92Z" transform="translate(-105.55 -190.14)"/><path class="cls-2" d="M420.6,344.31c0-.24,0-.53,0-.87a6.81,6.81,0,0,1,.05-.87h0a9.29,9.29,0,0,1-1,.62,9.61,9.61,0,0,1-1.25.56,9.11,9.11,0,0,1-1.5.41,9.53,9.53,0,0,1-4.7-.34,7.11,7.11,0,0,1-2.61-1.53,7.64,7.64,0,0,1-1.84-2.68,10.08,10.08,0,0,1-.7-3.93,10.68,10.68,0,0,1,.71-4,8.74,8.74,0,0,1,1.89-2.89,7.9,7.9,0,0,1,2.71-1.75,8.85,8.85,0,0,1,3.16-.59,7.26,7.26,0,0,1,3.16.66,6.85,6.85,0,0,1,2.26,1.68H421l.2-1.92h4.16v17.35a10.57,10.57,0,0,1-.28,2.57,6.54,6.54,0,0,1-.82,1.9,6.69,6.69,0,0,1-1.63,1.69,9.68,9.68,0,0,1-2.26,1.19,14.23,14.23,0,0,1-2.79.71,20.74,20.74,0,0,1-3.22.24c-.65,0-1.27,0-1.89-.06s-1.19-.1-1.73-.18-1-.16-1.48-.26a10.34,10.34,0,0,1-1.13-.31v-3.39a20,20,0,0,0,2.77.59,23,23,0,0,0,3.06.2,9.35,9.35,0,0,0,4.92-1.08,3.6,3.6,0,0,0,1.74-3.28ZM416.36,341a6,6,0,0,0,1.36-.15,6.82,6.82,0,0,0,1.18-.41,6,6,0,0,0,1-.54,5.85,5.85,0,0,0,.73-.6v-7.61a6.34,6.34,0,0,0-1.88-1.32,5.88,5.88,0,0,0-2.38-.55,5.08,5.08,0,0,0-.93.1,4,4,0,0,0-1.94,1,3.71,3.71,0,0,0-.79,1.05,6.62,6.62,0,0,0-.56,1.51,9.74,9.74,0,0,0,.07,4.33,5,5,0,0,0,.84,1.73,3.85,3.85,0,0,0,1.4,1.09A4.62,4.62,0,0,0,416.36,341Z" transform="translate(-105.55 -190.14)"/><path class="cls-2" d="M440.52,341a17.17,17.17,0,0,0,2.88-.25,24.61,24.61,0,0,0,3-.7v3.32a15,15,0,0,1-2.82.67,24.08,24.08,0,0,1-3.94.32,16,16,0,0,1-3.91-.47,9,9,0,0,1-3.23-1.5,7.35,7.35,0,0,1-2.19-2.69,9,9,0,0,1-.81-4,10,10,0,0,1,.76-4.06,8.25,8.25,0,0,1,2-2.88,8.56,8.56,0,0,1,2.93-1.72,10.39,10.39,0,0,1,3.41-.57,11.38,11.38,0,0,1,3.39.49,6.77,6.77,0,0,1,4.44,4.27,11,11,0,0,1,.63,3.93c0,.58,0,1.08-.06,1.49h-12.7a4.66,4.66,0,0,0,.6,2,4.06,4.06,0,0,0,1.31,1.36,5.93,5.93,0,0,0,1.89.75A10.78,10.78,0,0,0,440.52,341Zm-1.9-11.29a4.23,4.23,0,0,0-1.6.29,3.82,3.82,0,0,0-2,2,5.23,5.23,0,0,0-.4,1.43h7.62a4.46,4.46,0,0,0-.23-1.43,3.29,3.29,0,0,0-.68-1.16,3.18,3.18,0,0,0-1.12-.8A4,4,0,0,0,438.62,329.66Z" transform="translate(-105.55 -190.14)"/><path class="cls-2" d="M455.9,329.21H456a7,7,0,0,1,1.06-1,7.81,7.81,0,0,1,1.46-.9,10.12,10.12,0,0,1,1.81-.62,9,9,0,0,1,2.11-.24,9.93,9.93,0,0,1,2.06.21,6.61,6.61,0,0,1,1.81.66,5.57,5.57,0,0,1,1.45,1.16,5.26,5.26,0,0,1,1.26,2.89c0,.42.07.92.07,1.48v11.06h-4.74V333.46a9.72,9.72,0,0,0-.07-1.18,2.78,2.78,0,0,0-.22-.86,2.27,2.27,0,0,0-1.08-1.16,4.15,4.15,0,0,0-1.78-.35,6.41,6.41,0,0,0-2.65.57,6.92,6.92,0,0,0-2.25,1.66v11.73h-4.74v-17h3.92Z" transform="translate(-105.55 -190.14)"/><path class="cls-2" d="M474.07,333.18h8.82V337h-8.82Z" transform="translate(-105.55 -190.14)"/><path class="cls-2" d="M502.43,331.28c1.92,2.4,3.48,4.54,4.68,6.4h.12Q507,333.09,507,331V320.35h4.9v23.52h-5.14L498,333q-2.29-2.82-4.76-6.52h-.12q.24,4.32.24,6.69v10.66h-4.9V320.35h5.14Z" transform="translate(-105.55 -190.14)"/><path class="cls-2" d="M526.26,344.31a11.74,11.74,0,0,1-4.84-.87,6.71,6.71,0,0,1-2.91-2.35,6.2,6.2,0,0,1-.77-1.74,8.6,8.6,0,0,1-.25-2.11V326.83h4.75v10a6.5,6.5,0,0,0,.14,1.49,3.73,3.73,0,0,0,.41,1.08,3,3,0,0,0,1.37,1.15,5.29,5.29,0,0,0,2.1.38,5.06,5.06,0,0,0,2.19-.43,2.89,2.89,0,0,0,1.37-1.28,4.85,4.85,0,0,0,.46-2.3V326.83H535v10.41a7,7,0,0,1-.82,3.5,6.15,6.15,0,0,1-1.19,1.47,7,7,0,0,1-1.72,1.12,10,10,0,0,1-2.24.72A14.08,14.08,0,0,1,526.26,344.31Zm-6.33-25.26h4.36v3.88h-4.36Zm8.21,0h4.36v3.88h-4.36Z" transform="translate(-105.55 -190.14)"/><path class="cls-2" d="M551.54,330.14h-.4a11.74,11.74,0,0,0-3.83.57,5.24,5.24,0,0,0-2.55,1.75v11.41H540v-17h3.92l.44,2.38h.08a5.83,5.83,0,0,1,2.31-2,7.7,7.7,0,0,1,3.53-.75,10.82,10.82,0,0,1,1.24.07Z" transform="translate(-105.55 -190.14)"/><path class="cls-2" d="M558.7,329.21h.08a7,7,0,0,1,1.06-1,7.5,7.5,0,0,1,1.46-.9,10.12,10.12,0,0,1,1.81-.62,9,9,0,0,1,2.11-.24,9.83,9.83,0,0,1,2,.21,6.5,6.5,0,0,1,1.81.66,5.41,5.41,0,0,1,1.45,1.16,5.28,5.28,0,0,1,1,1.7,4.41,4.41,0,0,1,.27,1.19,12.89,12.89,0,0,1,.07,1.48v11.06h-4.74V333.46a9.94,9.94,0,0,0-.06-1.18,3.09,3.09,0,0,0-.22-.86,2.25,2.25,0,0,0-1.09-1.16,4.07,4.07,0,0,0-1.77-.35,6.41,6.41,0,0,0-2.65.57,6.82,6.82,0,0,0-2.25,1.66v11.73h-4.74v-17h3.92Z" transform="translate(-105.55 -190.14)"/><path class="cls-2" d="M595.69,335.06a10.38,10.38,0,0,1-.76,4.08,8.63,8.63,0,0,1-2,2.92,8.11,8.11,0,0,1-2.77,1.69,9.11,9.11,0,0,1-3.1.56,7.46,7.46,0,0,1-2-.24,7.62,7.62,0,0,1-1.54-.59,5.78,5.78,0,0,1-1.11-.74,6,6,0,0,1-.71-.68h-.08l-.46,1.81h-3.93c0-.51,0-1.13.07-1.87s0-1.46,0-2.12V318.41h4.75v7.09c0,.5,0,1,0,1.4s0,.75,0,1h0c.3-.19.64-.37,1-.55a10,10,0,0,1,1.18-.47,9.85,9.85,0,0,1,2.94-.46,9.63,9.63,0,0,1,3.15.52,7.9,7.9,0,0,1,2.72,1.58,7.57,7.57,0,0,1,1.89,2.73A9.86,9.86,0,0,1,595.69,335.06Zm-4.9.21a7.81,7.81,0,0,0-.44-2.75,4.38,4.38,0,0,0-1.15-1.76,4,4,0,0,0-1.48-.81,5.49,5.49,0,0,0-1.53-.22,6.67,6.67,0,0,0-2.12.37,7.84,7.84,0,0,0-2,1v8.15a5.24,5.24,0,0,0,.68.59,6.06,6.06,0,0,0,2,1,4.78,4.78,0,0,0,1.28.16,4.63,4.63,0,0,0,2-.41,4,4,0,0,0,1.46-1.17,5.23,5.23,0,0,0,.89-1.8A8.43,8.43,0,0,0,590.79,335.27Z" transform="translate(-105.55 -190.14)"/><path class="cls-2" d="M609.87,341a17.17,17.17,0,0,0,2.88-.25,25,25,0,0,0,3-.7v3.32A15,15,0,0,1,613,344a24.08,24.08,0,0,1-3.94.32,16,16,0,0,1-3.91-.47,9,9,0,0,1-3.23-1.5,7.35,7.35,0,0,1-2.19-2.69,9,9,0,0,1-.81-4,10,10,0,0,1,.76-4.06,8.13,8.13,0,0,1,2-2.88,8.56,8.56,0,0,1,2.93-1.72,10.39,10.39,0,0,1,3.41-.57,11.38,11.38,0,0,1,3.39.49,6.77,6.77,0,0,1,4.44,4.27,11,11,0,0,1,.63,3.93c0,.58,0,1.08-.06,1.49h-12.7a4.66,4.66,0,0,0,.6,2,4.06,4.06,0,0,0,1.31,1.36,5.93,5.93,0,0,0,1.89.75A10.78,10.78,0,0,0,609.87,341ZM608,329.66a4.23,4.23,0,0,0-1.6.29,3.82,3.82,0,0,0-2,2,5.23,5.23,0,0,0-.4,1.43h7.62a4.46,4.46,0,0,0-.23-1.43,3.29,3.29,0,0,0-.68-1.16,3.18,3.18,0,0,0-1.12-.8A4,4,0,0,0,608,329.66Z" transform="translate(-105.55 -190.14)"/><path class="cls-2" d="M632.41,330.14H632a11.74,11.74,0,0,0-3.83.57,5.24,5.24,0,0,0-2.55,1.75v11.41h-4.74v-17h3.92l.44,2.38h.08a5.83,5.83,0,0,1,2.31-2,7.7,7.7,0,0,1,3.53-.75,10.69,10.69,0,0,1,1.24.07Z" transform="translate(-105.55 -190.14)"/><path class="cls-2" d="M647.8,344.31c0-.24,0-.53,0-.87a6.81,6.81,0,0,1,.05-.87h0a9.29,9.29,0,0,1-1,.62,9.61,9.61,0,0,1-1.25.56,9.11,9.11,0,0,1-1.5.41,9.49,9.49,0,0,1-4.69-.34,7.07,7.07,0,0,1-2.62-1.53,7.62,7.62,0,0,1-1.83-2.68,9.89,9.89,0,0,1-.71-3.93,10.68,10.68,0,0,1,.71-4,8.6,8.6,0,0,1,1.9-2.89,7.71,7.71,0,0,1,2.71-1.75,8.75,8.75,0,0,1,3.15-.59,7.26,7.26,0,0,1,3.16.66,6.85,6.85,0,0,1,2.26,1.68h.08l.2-1.92h4.16v17.35a10.57,10.57,0,0,1-.28,2.57,6.54,6.54,0,0,1-.82,1.9,6.69,6.69,0,0,1-1.63,1.69,9.68,9.68,0,0,1-2.26,1.19,14.23,14.23,0,0,1-2.79.71,20.74,20.74,0,0,1-3.22.24c-.64,0-1.27,0-1.88-.06s-1.2-.1-1.74-.18-1-.16-1.47-.26a10,10,0,0,1-1.14-.31v-3.39a20.28,20.28,0,0,0,2.77.59,23,23,0,0,0,3.06.2,9.35,9.35,0,0,0,4.92-1.08,3.6,3.6,0,0,0,1.74-3.28ZM643.56,341a6,6,0,0,0,1.36-.15,6.82,6.82,0,0,0,1.18-.41,6,6,0,0,0,1-.54,5.85,5.85,0,0,0,.73-.6v-7.61a6.34,6.34,0,0,0-1.88-1.32,5.88,5.88,0,0,0-2.38-.55,5.08,5.08,0,0,0-.93.1,4,4,0,0,0-1.94,1,3.91,3.91,0,0,0-.79,1.05,6.19,6.19,0,0,0-.55,1.51,8.89,8.89,0,0,0-.21,2,8.4,8.4,0,0,0,.28,2.29,4.66,4.66,0,0,0,.84,1.73,3.73,3.73,0,0,0,1.39,1.09A4.62,4.62,0,0,0,643.56,341Z" transform="translate(-105.55 -190.14)"/><path class="cls-3" d="M209,211.48a164.53,164.53,0,0,1-36.85-.42c-1.63-.2-2.81,1.76-2.41,3.16,7,24.38.21,49.52-9.58,72.08-5.21,12-11.28,23.6-17.51,35.1-3.15,5.83-6.35,11.64-9.51,17.48-2.94,5.45-7,11.06-6.17,17.56a12.47,12.47,0,0,0,4.5,8.4,22.23,22.23,0,0,0,8.35,4c6.16,1.52,12.58,1.07,18.85,1.07,3.22,0,3.23-5,0-5-5.31,0-10.78.44-16-.57-4.63-.88-9.84-3-10.69-8.16-.46-2.77.42-5.22,1.7-7.63q2.22-4.2,4.49-8.38c3.08-5.69,6.2-11.36,9.28-17.06,6.07-11.22,12-22.55,17.06-34.26,4.9-11.29,9.16-22.78,11.39-34.92,2.5-13.6,2.55-27.66-1.31-41l-2.41,3.17a164.53,164.53,0,0,0,36.85.42,2.57,2.57,0,0,0,2.5-2.5,2.51,2.51,0,0,0-2.5-2.5Z" transform="translate(-105.55 -190.14)"/><path class="cls-3" d="M143.64,369.72q25.44.57,50.88.24,7.32-.09,14.64-.26c3.21-.07,3.22-5.07,0-5q-25.44.58-50.88.28-7.32-.09-14.64-.26c-3.22-.07-3.22,4.93,0,5Z" transform="translate(-105.55 -190.14)"/><path class="cls-3" d="M147.86,317.1a43.23,43.23,0,0,0,46.53,9.3,44.18,44.18,0,0,0,12.21-7.57,2.51,2.51,0,0,0,0-3.53,2.54,2.54,0,0,0-3.53,0,38.17,38.17,0,0,1-41.5,5.49,38.79,38.79,0,0,1-10.18-7.23c-2.29-2.26-5.82,1.27-3.53,3.54Z" transform="translate(-105.55 -190.14)"/><path class="cls-4" d="M203.47,318a96.49,96.49,0,0,1-2.59,46.46l2.41-1.84c-.21,0-.85.07.25.15.2,0,0,.24,0,0,0,0-.18-.35-.14-.23a4.55,4.55,0,0,1-.31-2,51.53,51.53,0,0,1,.43-6.8,57.29,57.29,0,0,1,3.21-12.7c1.51-4.06,3.3-8.09,4-12.38a21.48,21.48,0,0,0,.24-6.45c-.28-2.11-.72-4.65-2.8-5.73-2.64-1.37-5,.83-6.6,2.67l-5.24,6a2.57,2.57,0,0,0,0,3.53,2.53,2.53,0,0,0,3.54,0l4.45-5.08a24.52,24.52,0,0,1,2-2.22,2.4,2.4,0,0,0,.24-.22l.16-.09c.56-.28.18-.42-1.15-.43-.06.29.24.89.31,1.18.86,3.87-.33,7.89-1.6,11.53-1.39,4-3.08,7.82-4.17,11.89a60.37,60.37,0,0,0-2,13c-.16,3.56.17,9.53,5.14,9.39a2.57,2.57,0,0,0,2.41-1.83,102,102,0,0,0,2.6-49.11,2.5,2.5,0,0,0-4.83,1.32Z" transform="translate(-105.55 -190.14)"/><path class="cls-3" d="M186.1,342.65a157.73,157.73,0,0,1-20.75,5.07l1.33,4.82L182.05,348a2.5,2.5,0,0,0-.67-4.91,80.45,80.45,0,0,0-16,3.56l1.93,4.57a99,99,0,0,1,13.35-5.52c2.55-.84,2.29-5.1-.66-4.91a161.15,161.15,0,0,0-20.31,2.62l1.32,4.82,5.54-1.76-3.07-1.74,0,.15v-1.33l0,.12,1.15-1.49,1.73,0,.9.89.13.29v1.43l-.9.9A7.18,7.18,0,0,1,169,345l3.38-.76a2.53,2.53,0,0,0,1.75-3.07,2.56,2.56,0,0,0-3.08-1.75A92.17,92.17,0,0,1,160,340.63l2.41,3.16a1.21,1.21,0,0,1,.8-.56,2.57,2.57,0,0,0,2.5-2.5,2.53,2.53,0,0,0-2.5-2.5l-15.85,0c-3.22,0-3.22,5,0,5l13.23.09-1.26-4.66a8.13,8.13,0,0,1-3.77,1.51,2.54,2.54,0,0,0-1.77,4.27,8.55,8.55,0,0,0,3.38,2.31l-1.49-3.67-1.84,2.41c-1.21,1.58.44,3.75,2.15,3.77l17.53.13-1.26-4.66-8.67,4.56a2.54,2.54,0,0,0-1.15,2.82A2.61,2.61,0,0,0,164.8,354l13.94,1.51-1.26-4.66L172.13,354a2.52,2.52,0,0,0,1.26,4.66l26.26,1.06v-5a137.64,137.64,0,0,0-19.43,1.92,2.53,2.53,0,0,0-1.74,3.08,2.57,2.57,0,0,0,3.07,1.75,43.55,43.55,0,0,0,9.93-2.56,2.57,2.57,0,0,0,1.75-3.07,2.53,2.53,0,0,0-3.08-1.75,46.54,46.54,0,0,1-14.06,2.22l1.27,4.65,9.67-7.19a2.59,2.59,0,0,0,1.15-2.82,2.53,2.53,0,0,0-2.41-1.84,39.59,39.59,0,0,1-15-2.46l1.83,2.41c0-2.37,1.92-4.4,3.29-6.18s3-3.76,4.54-5.53c3.12-3.46,6.71-6.66,11.16-8.25L189.15,325l-6,6.14a2.51,2.51,0,0,0,3,3.93,39.81,39.81,0,0,0,9.51-7.62L191.5,325a14.54,14.54,0,0,1-2.62,4.65,2.51,2.51,0,0,0,3,3.93,45.52,45.52,0,0,0,13-10.58,2.57,2.57,0,0,0,0-3.53,2.53,2.53,0,0,0-3.54,0l-3,3.31,3.93,3,1.21-2.46a2.5,2.5,0,0,0-3.92-3c-1.88,1.6-3.59,4.13-2.24,6.63a4,4,0,0,0,6.17,1.28l-4.18-2.44-.87,2.87c-.69,2.3,2.53,4.36,4.18,2.43l1.86-2.18-4.18-1.1a30,30,0,0,1,1.7,5.81,2.5,2.5,0,0,0,4.82-1.33,30,30,0,0,0-1.7-5.81c-.63-1.58-2.82-2.69-4.17-1.1l-1.87,2.18,4.18,2.43.87-2.87c.77-2.55-2.39-3.95-4.18-2.43-.4.34,1.43-.68,1.74-.14l.14.46q-.13.43,0,.09c.33-.14.94-1,1.23-1.25l-3.93-3-1.21,2.46c-1.2,2.42,1.9,5.24,3.92,3l3-3.31-3.54-3.53a41.71,41.71,0,0,1-12,9.79l3,3.93a21.08,21.08,0,0,0,3.91-6.86c.81-2.35-2.53-4.24-4.18-2.43a35.11,35.11,0,0,1-8.5,6.84l3,3.93,6-6.14c1.65-1.69,0-5.05-2.43-4.18-5.42,1.93-9.84,5.57-13.63,9.83-1.87,2.1-3.59,4.33-5.3,6.56-1.93,2.5-3.71,5.11-3.73,8.39a2.59,2.59,0,0,0,1.84,2.41,43.52,43.52,0,0,0,16.34,2.64l-1.26-4.66-9.68,7.2a2.62,2.62,0,0,0-1.15,2.82,2.56,2.56,0,0,0,2.41,1.84,51.48,51.48,0,0,0,15.39-2.4l-1.33-4.82a43.53,43.53,0,0,1-9.93,2.55l1.33,4.83a126.33,126.33,0,0,1,18.1-1.75c3.22-.08,3.21-4.87,0-5l-26.26-1.06,1.26,4.66,5.35-3.21c2.28-1.37,1.09-4.4-1.26-4.66L164.8,349l1.26,4.66,8.67-4.55c2.25-1.18,1.14-4.64-1.26-4.66l-17.53-.13,2.16,3.76,1.85-2.42c1.1-1.43-.2-3.12-1.5-3.67a3.31,3.31,0,0,1-1.17-1l-1.77,4.27a13.32,13.32,0,0,0,6.3-2.2,2.52,2.52,0,0,0-1.27-4.65l-13.23-.09v5l15.85,0v-5a6.38,6.38,0,0,0-5.62,4.23,2.52,2.52,0,0,0,2.41,3.17,104.18,104.18,0,0,0,12.46-1.41l-1.33-4.82c-1.65.37-3.31.73-5,1.11s-3.37,1.25-3.6,3.17c-.53,4.47,7,4.07,5.78-.26a2.54,2.54,0,0,0-3.08-1.75l-5.53,1.76a2.5,2.5,0,0,0,1.32,4.82,149.87,149.87,0,0,1,19-2.44l-.67-4.91a109.22,109.22,0,0,0-14.55,6c-2.51,1.27-.76,5.48,1.93,4.57a74.52,74.52,0,0,1,14.67-3.38l-.66-4.91-15.37,4.52c-3.14.92-1.79,5.36,1.33,4.82a159.29,159.29,0,0,0,20.75-5.06c3-1,1.75-5.8-1.33-4.83Z" transform="translate(-105.55 -190.14)"/><path class="cls-3" d="M178.41,342.81a35.49,35.49,0,0,1,20.84-11.31l-1.92-4.57a122.25,122.25,0,0,1-21.11,12.91,2.5,2.5,0,0,0,2.53,4.32A55.06,55.06,0,0,0,195.47,332l-3.92-3a48.29,48.29,0,0,1-8.73,10.74c-1.75,1.61.07,5.1,2.43,4.17a68,68,0,0,0,21.38-13.39l-4.27-1.76c0-.34-.05.2-.06.26s-.11.42-.18.63a3.4,3.4,0,0,1-.37.8,6.38,6.38,0,0,1-1.36,1.74,30.37,30.37,0,0,1-4.26,3.35c-3.39,2.39-6.74,4.93-8.12,9a2.51,2.51,0,0,0,3.07,3.07A20.48,20.48,0,0,0,202.62,339l-4.32-2.53a57,57,0,0,1-7.61,11.34c-1.74,2,0,4.51,2.44,4.18a19.49,19.49,0,0,0,8.7-3.5,2.5,2.5,0,0,0-2.53-4.32,11.39,11.39,0,0,0-3.87,3.34c-.91,1.11-1.75,2.33-2.92,2.54a2,2,0,0,1-1.07-.1h0c-.25-.15-.26-.16,0,0a2,2,0,0,1,.18.59c-.05-.17.22-.17,0,0s.56-.31.43-.25a6.57,6.57,0,0,1,1.79-.4l-1.77-.73c.36.42.19.9,0,1.37l2.41-1.83-9.87.15.66,4.91a15.17,15.17,0,0,0,8.19-5.16l-3.93-.51a11.13,11.13,0,0,0,12,4.8A2.5,2.5,0,1,0,200.2,348c-4.92,1-5.79,8.22-1.66,10.68l-.5-3.92c-3.66,4.36-9.95,4.36-15.19,4.34-3.21,0-3.22,5,0,5l14.41.09-.67-4.91a97.44,97.44,0,0,1-29.76,1.16l1.26,4.66a77.62,77.62,0,0,0,14.78-10.76,2.53,2.53,0,0,0-1.77-4.27A16.92,16.92,0,0,0,169,355.36a2.51,2.51,0,0,0-.19,3.28,2.46,2.46,0,0,0,3.22.64,54.26,54.26,0,0,0,7.79-7.13c1.78-2-.56-5.62-3-3.92L172,351.5c-.4.27-.79.55-1.19.81s-.9.42-1,.66-.25-.14-.09.17.77.48.57,1l-.64,1.1.17-.22a2.54,2.54,0,0,0,.19-3.28,2.47,2.47,0,0,0-3.22-.64,42.72,42.72,0,0,1-11.82,5.74L158,359.9a152.66,152.66,0,0,0,2.4-15.91c.22-2.17-2.87-3.29-4.26-1.77l-5.67,6.15,3.93,3,2.06-3-3.92.5c3.15,3.92,9.59,4,13,.43A2.5,2.5,0,0,0,162,345.8c.21-.18-.22,0-.13,0a1.84,1.84,0,0,1-.45-.2c.09.16,0-.19.06-.29s.2-.27.18-.26l-2.43-4.18-6.14,5.57,3.92,3,2.42-5.47-4.57-1.93a15.36,15.36,0,0,1-4.92,7.53l4.18,1.1a3,3,0,0,1,.22-3.12l-3.92-3-2.81,4.3c-1.11,1.71.78,4.5,2.82,3.67a18.81,18.81,0,0,1,11.8-.92l-1.75-3.07c-.14.4-.12.46,0,.2a.48.48,0,0,1-.38.23c-2.59,1.31-.75,5.23,1.93,4.57a24,24,0,0,0,17.41-17.62,2.53,2.53,0,0,0-3.08-3.07,32.94,32.94,0,0,0-13.76,7.69l3.54,3.53a89.89,89.89,0,0,1,12-10c2.63-1.81.35-5.86-2.52-4.32l-3,1.63,3,3.93a5.52,5.52,0,0,0,1.52-5.33,2.42,2.42,0,0,0-1.74-1.74,71.56,71.56,0,0,1-12.88-3.44,32.31,32.31,0,0,1-5.6-2.42c-1.42-.87-1.06-2.67-.93-4.12.19-2.14-2.88-3.32-4.27-1.76a29.64,29.64,0,0,0-7.54,18.83c-.07,2,2.88,3.49,4.26,1.77a58,58,0,0,1,8.14-8.29L152.39,327a9.44,9.44,0,0,1-1.9,5.07,2.54,2.54,0,0,0-.19,3.28,2.5,2.5,0,0,0,3.22.64l6.77-3.71-3.76-2.16a6.89,6.89,0,0,1-2.71,4.93c-2.17,1.78.77,5.65,3,3.93l8-6.09-3.76-2.16a2.91,2.91,0,0,1-1.82,3.16l1.92,4.57,6.88-4.08-3.76-2.15c.39,4.75,5,7.54,9.55,7,5.29-.64,8.49-5.41,11-9.63a2.53,2.53,0,0,0-2.82-3.67,119.08,119.08,0,0,0-27.58,11.7c-2,1.16-1.31,4.95,1.26,4.66l13.56-1.55a2.62,2.62,0,0,0,2.41-1.84,2.56,2.56,0,0,0-1.15-2.82A25.24,25.24,0,0,0,145,337l3,.39a4.34,4.34,0,0,1-.77-5.36c1.38-2.38-2.06-5.26-3.93-3a46.14,46.14,0,0,0-9.84,19.87c-.3,1.41.7,3.37,2.41,3.16a14.8,14.8,0,0,0,11.18-7.14l-4.57-1.93a2.81,2.81,0,0,1-1.88,1.84l3.07,3.07c1.15-3.45,2.42-6.87,3.82-10.23a2.51,2.51,0,0,0-1.14-2.82,2.55,2.55,0,0,0-3,.39,16.2,16.2,0,0,0-4.82,11.48,2.53,2.53,0,0,0,3.17,2.41q10.41-3.18,20.68-6.75L160,338.14l-5.51,4.91a9.28,9.28,0,0,1-2,1.65c.13-.06-.54.36-.35.13-.32,0-.34,0-.05,0a1.62,1.62,0,0,1,1,1.36,2.51,2.51,0,0,0-4.91-.67l.29-.44c.58-.28.66-.34.23-.2.29.12-.41,0-.48,0-.77,0-1-.15-1.81-.2a5.38,5.38,0,0,0-4.31,1.83,3.45,3.45,0,0,0,0,4.72c1.24,1.29,3.62,1,5.29,1.1,5.55.43,12,1.26,16.33,5.06a13.46,13.46,0,0,1,1.52,1.5s.55.71.54.71l.07.11a.86.86,0,0,1,.28-.74c.07-.21-.18,0-.06,0s-.84.18-.51.14a14.89,14.89,0,0,1-2.67-.05l-12.27-.61-5.89-.29c-.66,0-1.77-.05-2.2-.11a12.1,12.1,0,0,1-1.67-.55c.28-.25,0,1.34,0,1,0,.22-.62-.05.12,0,.3,0,.23-.07.56-.09a34.63,34.63,0,0,1,5.65.46l6.89.66,3.44.33a6.19,6.19,0,0,0,1.48.14,1.56,1.56,0,0,1,.42.08c.21,0,.13-.09-.24-.38,0,0,.21,1,.23,1.12a4.37,4.37,0,0,0,.9,1.8,3.62,3.62,0,0,0,2.56,1.21,3.13,3.13,0,0,0,3.33-3.87,2.51,2.51,0,0,0-2.41-1.84l-8.6.82a39,39,0,0,1-3.89.32s-1.23-.26-1.26-.25c.12,0,.14.12,0,.43,1.49-2.85-2.82-5.38-4.32-2.53a4.71,4.71,0,0,0,.62,5.35,6.41,6.41,0,0,0,5.2,2c4.08-.1,8.21-.75,12.27-1.14l-2.41-1.83,0,.2v-1.33l.11-.28.9-.9.67-.14a1.71,1.71,0,0,1,1.13.65,7.33,7.33,0,0,0-.23-1.11,4.32,4.32,0,0,0-1.71-2.41c-1.64-1.11-3.85-1-5.75-1.2l-11.81-1.14c-3-.29-7.31-.59-8.48,3.08-1.05,3.32,2,5.6,4.92,6.11a43.78,43.78,0,0,0,5.49.38l6.38.32c3.85.19,7.73.53,11.58.57,3.1,0,6.85-1.71,6.1-5.42-.62-3.07-4-5.64-6.57-7.15-6-3.55-13.31-4.12-20.12-4.49l1.77.74a1.63,1.63,0,0,1,0,2c-.17.07-.12,0,.16-.12-.13,0,.49-.11.06-.09.82,0,1.66.27,2.49.25a4.42,4.42,0,0,0,4.48-3l-4.91-.66c.24,3.79,4.27,4.25,7,2.72a23.26,23.26,0,0,0,4-3.31l4.45-4c1.83-1.63-.09-5-2.44-4.18q-10.27,3.57-20.68,6.75l3.16,2.41a11.16,11.16,0,0,1,3.35-7.95l-4.18-2.43q-2.1,5.06-3.82,10.24a2.51,2.51,0,0,0,3.07,3.07,8,8,0,0,0,5.38-5.33c.88-2.73-3.15-4.33-4.57-1.92a9.53,9.53,0,0,1-6.86,4.66l2.41,3.17a40.86,40.86,0,0,1,8.56-17.66l-3.93-3a9.42,9.42,0,0,0,1.55,11.42,2.54,2.54,0,0,0,3,.39,20.16,20.16,0,0,1,20.47-.87l1.27-4.66-13.56,1.55L157,342a113.48,113.48,0,0,1,26.39-11.2l-2.83-3.67c-1.53,2.59-3.37,6-6.45,7A4.76,4.76,0,0,1,171,334a3,3,0,0,1-1.34-1,3.58,3.58,0,0,1-.33-.78,2.53,2.53,0,0,0-3.76-2.16l-6.88,4.07c-2.37,1.4-.83,5.5,1.93,4.57a7.91,7.91,0,0,0,5.49-8c-.14-1.66-2.11-3.42-3.77-2.16l-8,6.09,3,3.93a11.81,11.81,0,0,0,4.17-8.47c.13-2-2.19-3-3.76-2.16L151,331.69l3,3.92a15.39,15.39,0,0,0,3.36-8.6c.17-2.36-2.75-3-4.27-1.77a58.45,58.45,0,0,0-8.13,8.29l4.27,1.77a24.24,24.24,0,0,1,6.08-15.3l-4.27-1.77c-.2,2.26-.16,4.64,1.24,6.53,1.58,2.14,4.44,3,6.81,4a72,72,0,0,0,15,4.27l-1.75-1.75c.06.26,0,.21-.23.46-2.08,2,.56,5.25,3,3.93l3-1.63-2.52-4.32a97,97,0,0,0-13,10.8c-2.29,2.27,1.18,5.72,3.54,3.53a27.56,27.56,0,0,1,11.55-6.4l-3.07-3.08a19,19,0,0,1-13.92,14.13l1.93,4.57a5,5,0,0,0,2.64-3.42,2.55,2.55,0,0,0-1.75-3.08,23.3,23.3,0,0,0-14.45.92l2.83,3.67,2.8-4.29c1.53-2.34-2.09-5.24-3.92-3a7.85,7.85,0,0,0-1.51,8,2.53,2.53,0,0,0,4.17,1.1,20,20,0,0,0,6.21-9.73,2.5,2.5,0,0,0-4.57-1.93l-2.41,5.48c-1.12,2.52,1.71,5,3.92,3l6.14-5.57c1.8-1.64-.08-5-2.43-4.18a5.6,5.6,0,0,0-3.23,7.89c1.74,3.12,5.89,3.3,8.44,1.22L162,345.8a4,4,0,0,1-5.95-.43c-1.08-1.35-3.11-.69-3.92.5l-2.07,3c-1.61,2.34,2,5.11,3.93,3l5.66-6.15L155.42,344a140.54,140.54,0,0,1-2.22,14.58,2.52,2.52,0,0,0,3.07,3.07,46.91,46.91,0,0,0,13-6.25l-3-3.92a3.81,3.81,0,0,0-.44,4.54,4.29,4.29,0,0,0,4.44,2,11.44,11.44,0,0,0,4.48-2.32l4.56-3.14-3-3.92a47.79,47.79,0,0,1-6.77,6.34l3,3.93a11.83,11.83,0,0,1,8.58-3.82l-1.77-4.27a71.37,71.37,0,0,1-13.76,10,2.56,2.56,0,0,0-1.15,2.83,2.6,2.6,0,0,0,2.41,1.83,101.7,101.7,0,0,0,31.09-1.34c2.82-.55,2.1-4.89-.66-4.91l-14.41-.09v5c6.53,0,14.2-.4,18.72-5.81a2.54,2.54,0,0,0-.5-3.93c-.41-.24-.13,0,0,.1-.34-.33,0,.16-.15-.27s0,.07,0-.18v-.38c0,.21,0,.22,0,.05s.12-.4.17-.61c-.1.38.26-.22,0,.05.09-.08.58-.43.22-.23s.18,0,.32-.07L200.2,348a6,6,0,0,1-6.37-2.5c-.79-1.22-2.86-1.83-3.92-.5a10.73,10.73,0,0,1-6,3.86c-2.73.68-2.15,5,.67,4.92l9.87-.15a2.6,2.6,0,0,0,2.41-1.84,6,6,0,0,0-.48-5.19,3,3,0,0,0-2.87-1.75,10,10,0,0,0-2.23.37c-3.1.83-6.07,4.06-4.06,7.35,1.66,2.72,5.49,3,8.14,1.71s3.75-4.6,6.46-5.84l-2.53-4.32a16.3,16.3,0,0,1-7.5,3l2.43,4.18A62.81,62.81,0,0,0,202.62,339a2.5,2.5,0,0,0-4.32-2.53,15.22,15.22,0,0,1-8.55,6.35l3.08,3.08a7.73,7.73,0,0,1,1.08-2,16.58,16.58,0,0,1,1.92-1.93c1.32-1.14,2.93-2.18,4.47-3.3,3.52-2.55,6.53-5.4,7.06-9.92.27-2.3-2.83-3.1-4.27-1.77a61.48,61.48,0,0,1-19.17,12.1l2.43,4.18a52.27,52.27,0,0,0,9.51-11.75c1.44-2.41-2-5.12-3.92-3a51.15,51.15,0,0,1-15.72,11.39l2.53,4.32a123.17,123.17,0,0,0,21.1-12.91,2.51,2.51,0,0,0-1.93-4.57,39.77,39.77,0,0,0-23,12.6c-2.15,2.38,1.38,5.93,3.53,3.53Z" transform="translate(-105.55 -190.14)"/><path class="cls-3" d="M172.93,360.82a157.09,157.09,0,0,1-25.38.94,7.8,7.8,0,0,1-2.21-.23,4.8,4.8,0,0,1-1.59-1.39,34.34,34.34,0,0,0-3.32-2.82A15.87,15.87,0,0,1,139,356a3,3,0,0,1-.74-1.05c-.15-.49.06-.9.77-1.23a7.17,7.17,0,0,1,4.17-.17c2.38.39,4.74.77,7.08,0,2.6-.85,2.26-4.95-.66-4.91l-7.58.1v5a31.64,31.64,0,0,1,13.3,1.09l-.59-4.57c-4.49,3.42-11.81,3.06-15.39-1.68a2.66,2.66,0,0,0-2.82-1.15c-4.43.85-5.72,6.25-4.18,9.93,2,4.79,7.68,5.74,12.27,6,12.25.78,24.51,1.41,36.76,2.11l20.83,1.2c2.1.12,3.38-2.87,1.76-4.27A29.07,29.07,0,0,0,183,355.3L184.3,360l11.57-4.89c2-.83,1.4-4.18-.6-4.56a57.72,57.72,0,0,0-15-1l1.26,4.66a7.87,7.87,0,0,0,4.06-4.81,2.52,2.52,0,0,0-2.41-3.16,192,192,0,0,0-24.09,1.49l1.26,4.66a79.91,79.91,0,0,1,17.44-5.73l-1.33-4.82-4.79,1.3,2.44,4.17a8.89,8.89,0,0,1,8.11-1.92l-1.49-3.67a25.22,25.22,0,0,1-8,7.17,2.56,2.56,0,0,0-1.15,2.82,2.64,2.64,0,0,0,2.42,1.84,15.4,15.4,0,0,0,8.67-1.55l-3.42-3.42a6.5,6.5,0,0,0,2.28,9.1l1.27-4.66c-4.43.57-8.86,1.09-13.28,1.68-1,.14-.2.07-.3,0a2.91,2.91,0,0,1-.37-.8c-.46-1-.88-2.12-1.32-3.17l-2.63-6.34c-3.11-7.49-6.08-15.25-11.81-21.18-2.24-2.32-5.78,1.22-3.54,3.53,5.87,6.07,8.67,14.5,11.84,22.15l2.82,6.79c.87,2.08,2.09,3.79,4.5,4,2.21.21,4.69-.44,6.89-.72l7.2-.93a2.62,2.62,0,0,0,2.41-1.83,2.55,2.55,0,0,0-1.15-2.83,1.44,1.44,0,0,1-.49-2.25,2.53,2.53,0,0,0-.4-3,2.58,2.58,0,0,0-3-.39,10.8,10.8,0,0,1-6.14.86l1.26,4.66a31.34,31.34,0,0,0,9.76-9,2.52,2.52,0,0,0-1.5-3.67,14.06,14.06,0,0,0-13,3.21c-1.9,1.71.11,4.81,2.43,4.18l4.79-1.3c3.12-.85,1.8-5.47-1.33-4.82A84.85,84.85,0,0,0,157.82,348c-2.17,1-1.18,5,1.26,4.66a192,192,0,0,1,24.09-1.49L180.76,348a3,3,0,0,1-1.77,1.82c-2.23,1.05-1.15,4.82,1.27,4.66a52.74,52.74,0,0,1,13.68.81l-.6-4.57-11.56,4.88c-2.3,1-1.11,4.82,1.26,4.66a24.08,24.08,0,0,1,17.4,5.71l1.77-4.26-32.73-1.88-16.36-.94-7.93-.46a18,18,0,0,1-5.83-1,6.81,6.81,0,0,1-2.06-1.38,3.55,3.55,0,0,1-.6-1.55c0-.18,0-.37,0-.55,0,0,.11-.77,0-.4,0-.13.29-.93.16-.62a4.77,4.77,0,0,1,.25-.43c-.25.33.23-.2.26-.22-.16.13-.21.1.1,0-.4.14.32-.05.37-.06L135,351.15c5.05,6.68,15.36,8.7,22.22,3.47,1.66-1.27,1.62-3.9-.6-4.57A35.14,35.14,0,0,0,142,348.78a2.59,2.59,0,0,0-2.5,2.5,2.53,2.53,0,0,0,2.5,2.5l7.58-.1-.67-4.91c-2.1.69-4.32,0-6.43-.3a10.42,10.42,0,0,0-5.13.59c-3.67,1.48-5.41,5.65-3.09,9.09a16.39,16.39,0,0,0,3.66,3.54c1.49,1.17,2.68,2.75,4.23,3.82,1.91,1.3,4.39,1.21,6.6,1.3q3.71.13,7.41.09a158.55,158.55,0,0,0,16.74-1.08,2.57,2.57,0,0,0,2.5-2.5,2.51,2.51,0,0,0-2.5-2.5Z" transform="translate(-105.55 -190.14)"/><path class="cls-3" d="M144.89,323.84a18.55,18.55,0,0,0-1.67,2,14,14,0,0,0-1.08,1.67,2.6,2.6,0,0,0-.25,1.93,1.8,1.8,0,0,0,.45.85,1.9,1.9,0,0,0,.7.65,2.53,2.53,0,0,0,1.92.25,2.62,2.62,0,0,0,1.5-1.15,13,13,0,0,1,1.15-1.76l-.39.5a14.28,14.28,0,0,1,1.21-1.37,2.59,2.59,0,0,0,.73-1.77,1.88,1.88,0,0,0-.21-1,1.85,1.85,0,0,0-.52-.8,2.52,2.52,0,0,0-1.77-.74,2.64,2.64,0,0,0-1.77.74Z" transform="translate(-105.55 -190.14)"/><path class="cls-3" d="M184.85,342.26l.06.29-.09-.66a5.72,5.72,0,0,1,0,1.17l.09-.67a10,10,0,0,1-.74,2.44l.25-.6c-.61,1.44-1.26,2.87-1.89,4.3a2.7,2.7,0,0,0-.25,1.93,2.52,2.52,0,0,0,3.07,1.75,2.46,2.46,0,0,0,1.5-1.15c.67-1.53,1.36-3.06,2-4.6a9.12,9.12,0,0,0,.81-5.53,2.51,2.51,0,0,0-3.07-1.75,2.58,2.58,0,0,0-1.75,3.08Z" transform="translate(-105.55 -190.14)"/><path class="cls-3" d="M157.37,354.38a4.67,4.67,0,0,0,2.82,1.54" transform="translate(-105.55 -190.14)"/><path class="cls-3" d="M155.6,356.15a5.34,5.34,0,0,0,.6.57,8.73,8.73,0,0,0,1.18.84,9.06,9.06,0,0,0,1.32.57,4.78,4.78,0,0,0,.83.2,1.85,1.85,0,0,0,1,0,1.79,1.79,0,0,0,.93-.29,1.83,1.83,0,0,0,.7-.65,1.8,1.8,0,0,0,.45-.85l.09-.66a2.43,2.43,0,0,0-.34-1.26l-.39-.51a2.5,2.5,0,0,0-1.1-.64,5,5,0,0,1-1.13-.31l.6.25a4.73,4.73,0,0,1-1-.61l.5.39a5.34,5.34,0,0,1-.65-.61,2.83,2.83,0,0,0-1.77-.74,1.88,1.88,0,0,0-1,.22,1.85,1.85,0,0,0-.81.52,2.52,2.52,0,0,0-.73,1.76l.09.67a2.5,2.5,0,0,0,.64,1.1Z" transform="translate(-105.55 -190.14)"/><path class="cls-3" d="M131.94,359.87a16.71,16.71,0,0,0,7.21,5.14l1.33-4.82a7.92,7.92,0,0,1-1-.24c-.31-.1.27.18,0,0-.11-.08-.26-.14-.38-.22a4.5,4.5,0,0,1-.45-.31c.2.15.13.11,0,0s-.45-.41-.66-.63c-.45-.46-.87-1-1.28-1.47l-.36-.47-.08-.1a9.77,9.77,0,0,1-.63-.95,3.88,3.88,0,0,1-.24-.45c-.17-.36.08.29,0-.11a4.77,4.77,0,0,1-.13-.51c0-.18,0-.17,0,0l0-.26c0-.18,0-.36,0-.53s0-.4,0-.13a7.87,7.87,0,0,1,.29-1.16c0-.05.17-.47.11-.33s.12-.26.14-.3q.27-.54.57-1.05c.4-.69.85-1.35,1.3-2a2.52,2.52,0,0,0-.9-3.42,2.56,2.56,0,0,0-3.42.9,18.32,18.32,0,0,0-2.74,5.26,8.54,8.54,0,0,0,.62,6.39,19.3,19.3,0,0,0,3.25,4.23,8.79,8.79,0,0,0,4.68,2.73,2.5,2.5,0,1,0,1.33-4.82c-.27-.11-.29-.12-.07,0L140,360c-.29-.14-.58-.28-.85-.44a14.75,14.75,0,0,1-1.41-.91c.35.26-.37-.31-.43-.37s-.36-.32-.53-.48a15.74,15.74,0,0,1-1.28-1.43,2.5,2.5,0,0,0-3.54,0,2.58,2.58,0,0,0,0,3.53Z" transform="translate(-105.55 -190.14)"/><path class="cls-3" d="M202.07,345.65a52.33,52.33,0,0,1,2.18-9.4c.66-2-1.9-4.1-3.67-2.82-4.83,3.49-10.92,2.89-16.53,2.37l1.77,4.26a4.35,4.35,0,0,1,2.92-1c3.22,0,3.22-4.94,0-5l-12.19-.19c-3.24-.05-3.2,4.82,0,5l2.84.17c3.22.18,3.21-4.82,0-5l-2.84-.17v5l12.19.19v-5a9.69,9.69,0,0,0-6.46,2.46c-1.8,1.55-.18,4.08,1.77,4.27,6.46.6,13.52.95,19-3.05l-3.67-2.83a52.33,52.33,0,0,0-2.18,9.4A2.59,2.59,0,0,0,199,347.4c1.16.32,2.89-.4,3.07-1.75Z" transform="translate(-105.55 -190.14)"/><path class="cls-3" d="M149.78,312.91c2.84,6.42,11.41,8.75,17.7,9.76,8,1.27,16,.64,23.9-.78,4.49-.8,8.93-1.85,13.36-2.91l-2.43-4.17c-2.35,2.36-5.8,3.45-8.92,4.41a51.64,51.64,0,0,1-10.59,2.12A54.31,54.31,0,0,1,161.2,319c-3.07-1-4.38,3.83-1.33,4.82a58.77,58.77,0,0,0,35.7,0c3.68-1.19,7.49-2.63,10.28-5.43a2.52,2.52,0,0,0-2.44-4.18c-9.09,2.16-18.29,4.35-27.7,4.23a45,45,0,0,1-13.14-2c-3.35-1.08-7-2.58-8.47-6a2.52,2.52,0,0,0-3.42-.89,2.55,2.55,0,0,0-.9,3.42Z" transform="translate(-105.55 -190.14)"/><line class="cls-5" x1="37.51" y1="178.25" x2="103.08" y2="178.25"/><path class="cls-4" d="M200.9,322.48l-.5,8.17a2.51,2.51,0,0,0,2.5,2.5,2.56,2.56,0,0,0,2.5-2.5l.5-8.17a2.51,2.51,0,0,0-2.5-2.5,2.56,2.56,0,0,0-2.5,2.5Z" transform="translate(-105.55 -190.14)"/><path class="cls-3" d="M146.84,317.11c-.08,4.94-1.84,9.67-2.24,14.59a38.56,38.56,0,0,0,1.69,14.67,2.55,2.55,0,0,0,3.67,1.5c2.29-1,2.42-4.27,2.88-6.36l1.67-7.66-4.91-.66A34.84,34.84,0,0,1,146.68,344l4.66,1.26.62-6.16c.28-2.8-4.33-3.4-4.91-.66l-2.39,11.17c-.68,3.14,4.14,4.48,4.82,1.33l2.39-11.17-4.91-.67-.62,6.16c-.24,2.42,3.66,3.49,4.66,1.27a42.62,42.62,0,0,0,3.6-13.32c.29-2.81-4.31-3.4-4.91-.67l-1.36,6.22-.63,2.87c-.1.48-.2,1-.31,1.44,0,.27-.11.53-.18.8.07.12.15,0,.23-.3l3.67,1.5a34.77,34.77,0,0,1-1.47-13.82c.45-4.76,2.12-9.3,2.2-14.12,0-3.22-5-3.22-5,0Z" transform="translate(-105.55 -190.14)"/><rect class="cls-2" x="94.29" width="14.21" height="197.95"/><text x="-105.55" y="-190.14"/><text x="-105.55" y="-190.14"/><text x="-105.55" y="-190.14"/><ellipse class="cls-6" cx="52.77" cy="159.82" rx="9.95" ry="9.88"/><ellipse class="cls-6" cx="78.08" cy="147.99" rx="3.63" ry="3.46"/></svg>
